<svg xmlns="http://www.w3.org/2000/svg" xmlns:xlink="http://www.w3.org/1999/xlink" width="40" zoomAndPan="magnify" viewBox="0 0 30 30.000001" height="40" preserveAspectRatio="xMidYMid meet" version="1.0"><defs><clipPath id="5998270338"><path d="M 5 3.15625 L 26.140625 3.15625 L 26.140625 25 L 5 25 Z M 5 3.15625 " clip-rule="nonzero"/></clipPath><clipPath id="3ca0feb5b3"><path d="M 6.582031 6.910156 L 10.933594 6.910156 L 10.933594 11.265625 L 6.582031 11.265625 Z M 6.582031 6.910156 " clip-rule="nonzero"/></clipPath></defs><g clip-path="url(#5998270338)"><path fill="#1c2120" d="M 21.019531 16.777344 C 20.648438 16.558594 20.195312 16.566406 19.828125 16.78125 L 17.96875 17.890625 C 17.554688 18.136719 17.035156 18.109375 16.652344 17.8125 C 15.992188 17.296875 14.929688 16.429688 14.007812 15.503906 C 13.082031 14.582031 12.214844 13.519531 11.699219 12.859375 C 11.402344 12.476562 11.375 11.957031 11.621094 11.542969 L 12.730469 9.683594 C 12.949219 9.316406 12.949219 8.859375 12.734375 8.488281 L 10.007812 3.832031 C 9.742188 3.378906 9.214844 3.15625 8.707031 3.28125 C 8.214844 3.402344 7.574219 3.695312 6.902344 4.367188 C 4.800781 6.46875 3.683594 10.015625 11.589844 17.921875 C 19.496094 25.828125 23.042969 24.714844 25.144531 22.609375 C 25.820312 21.9375 26.109375 21.296875 26.230469 20.800781 C 26.355469 20.292969 26.136719 19.773438 25.6875 19.507812 C 24.5625 18.851562 22.140625 17.433594 21.019531 16.777344 Z M 21.019531 16.777344 " fill-opacity="1" fill-rule="nonzero"/></g><g clip-path="url(#3ca0feb5b3)"><path fill="#1c2120" d="M 8.867188 6.910156 C 10.128906 6.910156 11.152344 7.933594 11.152344 9.195312 C 11.152344 10.457031 10.128906 11.480469 8.867188 11.480469 C 7.605469 11.480469 6.582031 10.457031 6.582031 9.195312 C 6.582031 7.933594 7.605469 6.910156 8.867188 6.910156 Z M 8.867188 6.910156 " fill-opacity="1" fill-rule="evenodd"/></g></svg>